<?xml version="1.0" standalone="no"?>
<!DOCTYPE svg PUBLIC "-//W3C//DTD SVG 20010904//EN"
 "http://www.w3.org/TR/2001/REC-SVG-20010904/DTD/svg10.dtd">
<svg version="1.0" xmlns="http://www.w3.org/2000/svg"
 width="384.000000pt" height="384.000000pt" viewBox="0 0 384.000000 384.000000"
 preserveAspectRatio="xMidYMid meet">
<metadata>
Created by potrace 1.14, written by Peter Selinger 2001-2017
</metadata>
<g transform="translate(0.000000,384.000000) scale(0.100000,-0.100000)"
fill="#000000" stroke="none">
<path d="M446 2599 c-23 -34 -21 -116 5 -154 39 -57 77 -141 109 -240 57 -177
125 -300 212 -381 50 -48 138 -100 209 -125 54 -19 86 -23 209 -23 164 -1 217
10 333 71 140 74 269 244 322 426 18 64 57 117 85 117 28 0 64 -55 90 -135 72
-224 210 -378 397 -447 78 -29 303 -37 411 -14 151 31 290 123 351 230 17 29
42 98 56 152 17 67 52 153 107 265 86 178 91 202 52 258 l-17 23 -366 -5
c-305 -4 -384 -9 -476 -25 -147 -27 -297 -66 -392 -102 -71 -27 -88 -30 -201
-30 -108 0 -135 4 -225 30 -138 42 -291 75 -455 101 -113 18 -195 22 -468 26
l-331 5 -17 -23z"/>
<path d="M1105 1440 c-9 -14 26 -85 81 -165 102 -146 374 -296 609 -336 102
-17 292 -5 400 26 145 42 296 131 411 243 84 81 164 233 122 232 -14 0 -64
-28 -177 -98 -262 -160 -639 -233 -871 -168 -92 25 -196 65 -275 104 -47 23
-82 45 -214 135 -54 38 -75 44 -86 27z"/>
</g>
</svg>
